<svg xmlns="http://www.w3.org/2000/svg" width="920" height="420" viewBox="0 0 920 420">
  <rect width="100%" height="100%" fill="white"/>
  <text x="70" y="30" font-family="-apple-system,BlinkMacSystemFont,Segoe UI,sans-serif" font-size="20" font-weight="700">Enterprise UI CPU and memory - level 2</text>
  <text x="70" y="50" font-family="-apple-system,BlinkMacSystemFont,Segoe UI,sans-serif" font-size="12" fill="#555">Rows: 40000 | avg CPU: 7.829% | max RSS: 382.094 MB</text>
  <line x1="70" y1="55.0" x2="880" y2="55.0" stroke="#ddd"/><line x1="70" y1="116.0" x2="880" y2="116.0" stroke="#ddd"/><line x1="70" y1="177.0" x2="880" y2="177.0" stroke="#ddd"/><line x1="70" y1="238.0" x2="880" y2="238.0" stroke="#ddd"/><line x1="70" y1="299.0" x2="880" y2="299.0" stroke="#ddd"/><line x1="70" y1="360.0" x2="880" y2="360.0" stroke="#ddd"/>
  <line x1="70" y1="55" x2="70" y2="360" stroke="#333"/>
  <line x1="70" y1="360" x2="880" y2="360" stroke="#333"/>
  <polyline points="70.0,333.5 132.3,335.9 194.6,345.1 256.9,345.1 319.2,340.8 381.5,333.8 443.8,334.1 506.2,344.4 568.5,333.5 630.8,345.4 693.1,331.6 755.4,315.8 817.7,340.8 880.0,326.1" fill="none" stroke="#2563eb" stroke-width="3"/>
  <polyline points="70.0,70.4 132.3,70.0 194.6,69.1 256.9,69.6 319.2,69.2 381.5,69.0 443.8,68.8 506.2,68.7 568.5,70.9 630.8,70.5 693.1,70.3 755.4,70.1 817.7,69.9 880.0,69.8" fill="none" stroke="#dc2626" stroke-width="3"/>
  <text x="70" y="400" font-family="-apple-system,BlinkMacSystemFont,Segoe UI,sans-serif" font-size="12">Seconds</text>
  <text x="670" y="400" font-family="-apple-system,BlinkMacSystemFont,Segoe UI,sans-serif" font-size="12" fill="#2563eb">CPU %</text>
  <text x="735" y="400" font-family="-apple-system,BlinkMacSystemFont,Segoe UI,sans-serif" font-size="12" fill="#dc2626">RSS MB</text>
  <text x="10" y="67" font-family="-apple-system,BlinkMacSystemFont,Segoe UI,sans-serif" font-size="11" fill="#2563eb">100%</text>
  <text x="10" y="360" font-family="-apple-system,BlinkMacSystemFont,Segoe UI,sans-serif" font-size="11" fill="#2563eb">0%</text>
  <text x="888" y="67" font-family="-apple-system,BlinkMacSystemFont,Segoe UI,sans-serif" font-size="11" fill="#dc2626">400 MB</text>
  <text x="888" y="360" font-family="-apple-system,BlinkMacSystemFont,Segoe UI,sans-serif" font-size="11" fill="#dc2626">0 MB</text>
</svg>