<svg xmlns="http://www.w3.org/2000/svg" width="920" height="420" viewBox="0 0 920 420">
  <rect width="100%" height="100%" fill="white"/>
  <text x="70" y="30" font-family="-apple-system,BlinkMacSystemFont,Segoe UI,sans-serif" font-size="20" font-weight="700">Enterprise UI CPU and memory - level 3</text>
  <text x="70" y="50" font-family="-apple-system,BlinkMacSystemFont,Segoe UI,sans-serif" font-size="12" fill="#555">Rows: 100000 | avg CPU: 14.743% | max RSS: 872.422 MB</text>
  <line x1="70" y1="55.0" x2="880" y2="55.0" stroke="#ddd"/><line x1="70" y1="116.0" x2="880" y2="116.0" stroke="#ddd"/><line x1="70" y1="177.0" x2="880" y2="177.0" stroke="#ddd"/><line x1="70" y1="238.0" x2="880" y2="238.0" stroke="#ddd"/><line x1="70" y1="299.0" x2="880" y2="299.0" stroke="#ddd"/><line x1="70" y1="360.0" x2="880" y2="360.0" stroke="#ddd"/>
  <line x1="70" y1="55" x2="70" y2="360" stroke="#333"/>
  <line x1="70" y1="360" x2="880" y2="360" stroke="#333"/>
  <polyline points="70.0,313.0 132.3,306.3 194.6,331.6 256.9,329.5 319.2,318.8 381.5,294.1 443.8,335.9 506.2,294.1 568.5,314.6 630.8,301.1 693.1,300.5 755.4,328.9 817.7,332.2 880.0,309.7" fill="none" stroke="#2563eb" stroke-width="3"/>
  <polyline points="70.0,65.2 132.3,65.0 194.6,64.9 256.9,64.8 319.2,64.7 381.5,64.6 443.8,64.4 506.2,64.3 568.5,65.4 630.8,65.2 693.1,65.1 755.4,65.0 817.7,64.9 880.0,64.9" fill="none" stroke="#dc2626" stroke-width="3"/>
  <text x="70" y="400" font-family="-apple-system,BlinkMacSystemFont,Segoe UI,sans-serif" font-size="12">Seconds</text>
  <text x="670" y="400" font-family="-apple-system,BlinkMacSystemFont,Segoe UI,sans-serif" font-size="12" fill="#2563eb">CPU %</text>
  <text x="735" y="400" font-family="-apple-system,BlinkMacSystemFont,Segoe UI,sans-serif" font-size="12" fill="#dc2626">RSS MB</text>
  <text x="10" y="67" font-family="-apple-system,BlinkMacSystemFont,Segoe UI,sans-serif" font-size="11" fill="#2563eb">100%</text>
  <text x="10" y="360" font-family="-apple-system,BlinkMacSystemFont,Segoe UI,sans-serif" font-size="11" fill="#2563eb">0%</text>
  <text x="888" y="67" font-family="-apple-system,BlinkMacSystemFont,Segoe UI,sans-serif" font-size="11" fill="#dc2626">900 MB</text>
  <text x="888" y="360" font-family="-apple-system,BlinkMacSystemFont,Segoe UI,sans-serif" font-size="11" fill="#dc2626">0 MB</text>
</svg>